<svg id="Layer_1" data-name="Layer 1" xmlns="http://www.w3.org/2000/svg" viewBox="0 0 3277.27 2743.44"><defs><style>.cls-1{fill:#231f20;}</style></defs><circle class="cls-1" cx="1637.24" cy="1103.48" r="450.42"/><circle class="cls-1" cx="2457.95" cy="450.42" r="450.42"/><circle class="cls-1" cx="819.32" cy="450.42" r="450.42"/><path class="cls-1" d="M2345.39,2127.33c-93.54,79.62-214.61,127.82-346.79,127.82-131.71,0-252.4-47.86-345.8-127-278.91,130.69-472.12,413.89-472.12,742.26v273a110.71,110.71,0,0,0,73.43,104.35c190.8,68,739.79,214.84,1485.76-4.72a110.87,110.87,0,0,0,79.45-106.36V2870.44C2819.32,2541.35,2625.27,2257.64,2345.39,2127.33Z" transform="translate(-361.36 -615.79)"/><path class="cls-1" d="M3166.36,1474c-93.58,79.75-214.74,128-347,128a533.36,533.36,0,0,1-342.54-124.14,532.28,532.28,0,0,1,57.7,241.33c0,131-47.29,251-125.6,344.23,246.12,125.21,427.66,359.75,480.26,639.27,197.89-8.54,423.17-41.05,670.05-113.72a110.87,110.87,0,0,0,79.45-106.36V2216.38C3638.64,1888,3445.36,1604.7,3166.36,1474Z" transform="translate(-361.36 -615.79)"/><path class="cls-1" d="M1518.47,1481.83a533.26,533.26,0,0,1-337.79,120.25c-132.3,0-253.46-48.29-347-128-279,130.66-472.28,413.91-472.28,742.34v273a110.72,110.72,0,0,0,73.43,104.36C547,2633.78,783.19,2701,1110.44,2705c51.92-279.75,233-514.68,478.75-640.46-78.82-93.33-126.46-213.79-126.46-345.23A532.16,532.16,0,0,1,1518.47,1481.83Z" transform="translate(-361.36 -615.79)"/></svg>